<svg width="36" height="36" viewBox="0 0 36 36" fill="none" xmlns="http://www.w3.org/2000/svg">
<g clip-path="url(#clip0_2165_1218)">
<rect width="48" height="48" fill="#D9D9D9"/>
<path fill-rule="evenodd" clip-rule="evenodd" d="M6.04657 31.4582C6.47506 26.6863 9.81841 22.7543 14.2829 21.4561C14.7133 21.3309 14.8419 20.316 14.4818 20.0492C12.976 18.9333 12 17.1431 12 15.125C12 11.7423 14.7423 9 18.125 9C21.5078 9 24.25 11.7423 24.25 15.125C24.25 17.3 23.1163 19.2103 21.4076 20.297C21.0294 20.5376 21.0845 21.5604 21.5047 21.7165C25.8078 23.3152 28.8946 27.4159 28.9974 32.2509C25.9559 34.6015 22.1413 36 18 36C13.4123 36 9.22548 34.2837 6.04657 31.4582Z" fill="#EEEEEE"/>
</g>
<defs>
<clipPath id="clip0_2165_1218">
<rect width="36" height="36" rx="18" fill="white"/>
</clipPath>
</defs>
</svg>
