<svg width="24" height="24" viewBox="0 0 24 24" fill="none" xmlns="http://www.w3.org/2000/svg">
<mask id="mask0_2013_3986" style="mask-type:alpha" maskUnits="userSpaceOnUse" x="4" y="4" width="16" height="16">
<path fill-rule="evenodd" clip-rule="evenodd" d="M18.3636 19.6365C18.7151 19.988 19.2849 19.988 19.6364 19.6365C19.9879 19.285 19.9879 18.7152 19.6364 18.3637L13.2728 12.0001L19.6364 5.6365C19.9879 5.28503 19.9879 4.71518 19.6364 4.36371C19.2849 4.01224 18.7151 4.01224 18.3636 4.36371L12 10.7273L5.63637 4.3637C5.2849 4.01223 4.71505 4.01223 4.36358 4.3637C4.01211 4.71517 4.01211 5.28502 4.36358 5.63649L10.7272 12.0001L4.3636 18.3637C4.01213 18.7152 4.01213 19.285 4.3636 19.6365C4.71508 19.988 5.28492 19.988 5.6364 19.6365L12 13.2729L18.3636 19.6365Z" fill="white"/>
</mask>
<g mask="url(#mask0_2013_3986)">
<rect width="24" height="24" fill="#4D4D4D"/>
</g>
</svg>
